<svg width="163" height="22" viewBox="0 0 163 22" fill="none" xmlns="http://www.w3.org/2000/svg">
<path d="M41.091 20.4008C41.3582 20.6693 41.676 20.8822 42.026 21.0272C42.376 21.1721 42.7513 21.2463 43.1301 21.2453C43.5089 21.2463 43.8842 21.1722 44.2341 21.0272C44.5841 20.8823 44.9019 20.6694 45.169 20.4008C45.709 19.8595 46.0123 19.1262 46.0123 18.3617C46.0123 17.5972 45.709 16.8639 45.169 16.3226L39.6128 10.7664L45.169 5.21012C45.709 4.66891 46.0123 3.93561 46.0123 3.1711C46.0123 2.40658 45.709 1.67328 45.169 1.13207C44.9019 0.863483 44.5841 0.650546 44.2341 0.505574C43.8842 0.360602 43.5089 0.286473 43.1301 0.287486C42.7513 0.286454 42.376 0.360553 42.026 0.505525C41.676 0.650498 41.3582 0.863465 41.091 1.13207L35.5348 6.68837L29.9786 1.13207C29.4373 0.592111 28.704 0.288881 27.9395 0.288899C27.1749 0.288917 26.4416 0.592183 25.9003 1.13217C25.3604 1.67336 25.0571 2.40665 25.0571 3.17115C25.0571 3.93565 25.3604 4.66893 25.9003 5.21012L31.4567 10.7664L25.9003 16.3226C25.3604 16.8639 25.0571 17.5972 25.0571 18.3617C25.0571 19.1262 25.3604 19.8595 25.9003 20.4008C26.1675 20.6693 26.4853 20.8823 26.8353 21.0272C27.1854 21.1722 27.5606 21.2463 27.9395 21.2453C28.3183 21.2463 28.6936 21.1722 29.0436 21.0272C29.3936 20.8822 29.7114 20.6693 29.9786 20.4007L35.5348 14.8444L41.091 20.4008Z" fill="#ffffff"/>
<path d="M57.5173 0C54.6629 0.00324203 51.9262 1.13859 49.9079 3.15699C47.8895 5.17539 46.7542 7.912 46.751 10.7664C46.7542 13.6209 47.8895 16.3575 49.9079 18.3759C51.9262 20.3943 54.6629 21.5296 57.5173 21.5329C60.3717 21.5296 63.1084 20.3943 65.1268 18.3759C67.1451 16.3575 68.2804 13.6209 68.2837 10.7664C68.2804 7.912 67.1451 5.17539 65.1268 3.15699C63.1084 1.13859 60.3717 0.00324203 57.5173 0ZM57.5173 15.7657C56.1919 15.7641 54.9213 15.237 53.9841 14.2998C53.0469 13.3625 52.5197 12.0918 52.5182 10.7664C52.5197 9.44103 53.0469 8.17035 53.9841 7.23314C54.9213 6.29593 56.1919 5.76873 57.5173 5.76722C58.8427 5.76873 60.1134 6.29593 61.0506 7.23314C61.9878 8.17035 62.515 9.44103 62.5164 10.7664C62.515 12.0918 61.9878 13.3625 61.0506 14.2998C60.1134 15.237 58.8427 15.7641 57.5173 15.7657Z" fill="#ffffff"/>
<path d="M11.6526 0.287476C11.1466 0.288296 10.6496 0.421881 10.2114 0.67489C9.77319 0.927898 9.40906 1.29147 9.15535 1.72928L0.385076 16.9198C0.13278 17.3585 0 17.8556 0 18.3616C0 18.8676 0.13278 19.3648 0.385076 19.8034C0.638781 20.2412 1.00291 20.6048 1.44112 20.8578C1.87934 21.1108 2.37629 21.2444 2.8823 21.2452H20.4229C20.9289 21.2445 21.4258 21.1109 21.8641 20.8579C22.3023 20.6048 22.6665 20.2413 22.9203 19.8034C23.1726 19.3648 23.3053 18.8676 23.3053 18.3616C23.3053 17.8556 23.1726 17.3585 22.9203 16.9198L14.15 1.72928C13.8963 1.29145 13.5321 0.92785 13.0938 0.674841C12.6556 0.421832 12.1586 0.28827 11.6526 0.287476ZM7.87693 15.478L11.6526 8.93831L15.4284 15.478H7.87693Z" fill="#ffffff"/>
<path d="M70.4207 0.351135H76.2635V15.9509H84.8292V20.8861H70.4207V0.351135Z" fill="#ffffff"/>
<path d="M95.2642 0.0392456C101.447 0.0392456 106.241 4.69085 106.241 10.6187C106.241 16.5466 101.447 21.1981 95.2642 21.1981C89.081 21.1981 84.2876 16.5466 84.2876 10.6187C84.2876 4.69084 89.081 0.0392456 95.2642 0.0392456ZM95.2642 15.9509C98.1571 15.9509 100.398 13.5968 100.398 10.6187C100.398 7.64061 98.1571 5.28641 95.2642 5.28641C92.3712 5.28641 90.1304 7.64061 90.1304 10.6187C90.1304 13.5968 92.3712 15.9509 95.2642 15.9509Z" fill="#ffffff"/>
<path d="M117.899 0.0392456C124.082 0.0392456 128.876 4.69085 128.876 10.6187C128.876 16.5466 124.082 21.1981 117.899 21.1981C111.716 21.1981 106.922 16.5466 106.922 10.6187C106.922 4.69084 111.716 0.0392456 117.899 0.0392456ZM117.899 15.9509C120.792 15.9509 123.033 13.5968 123.033 10.6187C123.033 7.64061 120.792 5.28641 117.899 5.28641C115.006 5.28641 112.765 7.64061 112.765 10.6187C112.765 13.5968 115.006 15.9509 117.899 15.9509Z" fill="#ffffff"/>
<path d="M134.576 5.28634H128.053V0.351135H146.943V5.28634H140.419V20.8861H134.576V5.28634Z" fill="#ffffff"/>
<path d="M148.28 14.3059C150.776 15.724 153.612 16.348 155.03 16.348C156.221 16.348 157.072 15.9226 157.072 14.8731C157.072 13.3983 155.427 13.3983 152.818 12.4907C149.698 11.4128 147.542 9.88121 147.542 6.56279C147.542 2.56355 150.634 0.0392456 155.228 0.0392456C157.356 0.0392456 159.994 0.578205 161.922 1.54253V6.93154C159.455 5.54167 156.732 4.8893 155.285 4.8893C154.207 4.8893 153.47 5.22971 153.47 6.13733C153.47 7.4704 155.058 7.4704 157.554 8.34967C160.759 9.48419 163 11.0725 163 14.5328C163 18.6738 159.738 21.1981 154.973 21.1981C152.874 21.1981 150.265 20.7159 148.28 19.78V14.3059Z" fill="#ffffff"/>
</svg>
